<svg width="307" height="60" viewBox="0 0 307 60" fill="none" xmlns="http://www.w3.org/2000/svg">
<path d="M119.38 23.3866V6.78992C119.38 6.42326 119.5 6.11659 119.74 5.86659C119.98 5.61659 120.273 5.49326 120.623 5.49326H126.066C126.413 5.49326 126.743 5.61993 127.056 5.86659C127.37 6.11659 127.576 6.4166 127.683 6.76326L131.629 18.1833L135.573 6.76326C135.679 6.4166 135.889 6.11659 136.199 5.86659C136.513 5.61659 136.843 5.49326 137.189 5.49326H142.632C142.979 5.49326 143.272 5.61993 143.509 5.86659C143.746 6.11659 143.862 6.42326 143.862 6.78992V23.3866C143.862 23.7533 143.739 24.0566 143.496 24.3033C143.249 24.5499 142.956 24.6699 142.606 24.6699H140.199C139.852 24.6699 139.556 24.5466 139.309 24.3033C139.062 24.0566 138.942 23.7533 138.942 23.3866V10.3199L134.223 23.4666C134.096 23.7966 133.879 24.0799 133.566 24.3166C133.253 24.5533 132.923 24.6699 132.576 24.6699H130.663C130.316 24.6699 129.986 24.5533 129.68 24.3166C129.373 24.0799 129.153 23.7966 129.016 23.4666L124.31 10.3199V23.3866C124.31 23.7533 124.186 24.0566 123.943 24.3033C123.696 24.5499 123.403 24.6699 123.053 24.6699H120.647C120.3 24.6699 120 24.5466 119.75 24.3033C119.503 24.0566 119.38 23.7533 119.38 23.3866Z" fill="#2B3E8A"/>
<path d="M147.769 23.44L151.125 10.71C152.035 7.24334 154.995 5.50334 160.005 5.49334H167.211C167.541 5.49334 167.815 5.62 168.035 5.86667C168.255 6.11667 168.361 6.40666 168.361 6.73666V23.44C168.361 23.7867 168.235 24.08 167.988 24.3167C167.738 24.5533 167.438 24.67 167.091 24.67H164.578C164.211 24.67 163.911 24.5533 163.675 24.3167C163.438 24.08 163.321 23.78 163.321 23.4133V20.0433H153.815L152.919 23.4133C152.829 23.78 152.629 24.08 152.319 24.3167C152.005 24.5533 151.675 24.67 151.329 24.67H148.695C148.349 24.67 148.099 24.57 147.945 24.37C147.792 24.17 147.719 23.9933 147.725 23.8433C147.725 23.69 147.742 23.5567 147.769 23.44ZM154.802 16.26H163.321V9.28H159.512C158.655 9.28 157.908 9.52333 157.272 10.01C156.635 10.4967 156.205 11.15 155.982 11.97L154.802 16.26Z" fill="#2B3E8A"/>
<path d="M193.74 24.0933C193.74 24.4767 193.513 24.67 193.057 24.67H189.847C189.507 24.67 189.137 24.5467 188.73 24.3033C188.324 24.0567 188.014 23.7633 187.8 23.4133L185.527 19.8567C184.59 18.3933 183.457 17.6633 182.131 17.6633H178.867V23.4133C178.867 23.76 178.744 24.0567 178.501 24.3033C178.254 24.55 177.961 24.67 177.611 24.67H175.098C174.751 24.67 174.451 24.5467 174.201 24.3033C173.951 24.0567 173.828 23.7633 173.828 23.4133V6.76334C173.828 6.41667 173.948 6.11667 174.188 5.86667C174.428 5.61667 174.721 5.49334 175.071 5.49334H186.104C188.144 5.49334 189.82 6.04 191.124 7.13667C192.43 8.23333 193.083 9.71334 193.083 11.5767C193.083 14.17 191.403 15.7967 188.044 16.4567C188.577 16.6533 189.074 16.99 189.527 17.4667C189.98 17.9433 190.504 18.6367 191.09 19.5467L193.523 23.41C193.67 23.6633 193.74 23.89 193.74 24.0933ZM178.871 13.8767H184.567C185.484 13.8767 186.294 13.6933 186.994 13.33C187.694 12.9633 188.044 12.38 188.044 11.5767C188.044 10.7733 187.694 10.19 186.994 9.82333C186.294 9.45667 185.484 9.27666 184.567 9.27666H178.871V13.8767Z" fill="#2B3E8A"/>
<path d="M217.449 24.08C217.449 24.4733 217.216 24.67 216.752 24.67H213.689C213.343 24.67 212.966 24.5467 212.566 24.3033C212.166 24.0567 211.853 23.7633 211.629 23.4133L209.276 19.6833C208.716 18.7733 208.149 18.09 207.579 17.63C207.009 17.17 206.323 16.94 205.52 16.94H202.646V23.44C202.646 23.7867 202.523 24.08 202.28 24.3167C202.033 24.5533 201.74 24.67 201.39 24.67H198.877C198.53 24.67 198.23 24.5433 197.98 24.29C197.73 24.0367 197.607 23.7333 197.607 23.3867V6.76334C197.607 6.41667 197.73 6.11333 197.98 5.85333C198.23 5.59333 198.527 5.46666 198.877 5.46666H201.39C201.736 5.46666 202.033 5.59667 202.28 5.85333C202.526 6.11333 202.646 6.41667 202.646 6.76334V13.17H205.52C206.303 13.17 206.993 12.9567 207.586 12.5267C208.179 12.1 208.743 11.4067 209.276 10.4533L211.349 6.76334C211.823 5.90667 212.463 5.47333 213.276 5.46666H216.366C216.792 5.46666 217.009 5.65333 217.009 6.02666C217.009 6.23333 216.932 6.47667 216.782 6.76334L213.879 12.02C213.459 12.7867 212.989 13.42 212.469 13.92C211.949 14.42 211.269 14.77 210.429 14.9767C211.019 15.1033 211.623 15.47 212.243 16.0867C212.863 16.7 213.409 17.37 213.879 18.0933L217.222 23.4167C217.372 23.6733 217.449 23.8933 217.449 24.08Z" fill="#2B3E8A"/>
<path d="M221.016 23.3867V6.73666C221.016 6.39 221.139 6.09667 221.389 5.85333C221.639 5.61333 221.936 5.49334 222.286 5.49334H237.705C238.051 5.49334 238.348 5.62 238.595 5.86667C238.838 6.11667 238.961 6.41667 238.961 6.76334V8.02C238.961 8.36667 238.838 8.66334 238.595 8.91C238.348 9.15667 238.055 9.27666 237.705 9.27666H226.055V13.1667H236.085C236.432 13.1667 236.728 13.29 236.975 13.5333C237.221 13.78 237.341 14.0733 237.341 14.4233V15.68C237.341 16.0267 237.218 16.3233 236.975 16.57C236.728 16.8167 236.435 16.9367 236.085 16.9367H226.055V20.88H237.675C238.015 20.88 238.305 21 238.545 21.24C238.785 21.48 238.905 21.7733 238.905 22.1233V23.4067C238.905 23.7533 238.778 24.05 238.531 24.2967C238.281 24.5433 237.985 24.6633 237.635 24.6633H222.286C221.939 24.6633 221.639 24.54 221.389 24.2967C221.142 24.0567 221.016 23.7533 221.016 23.3867Z" fill="#2B3E8A"/>
<path d="M241.421 8.02V6.76334C241.421 6.39667 241.541 6.09333 241.781 5.85333C242.021 5.61333 242.325 5.49334 242.691 5.49334H259.661C260.027 5.49334 260.331 5.61333 260.57 5.85333C260.81 6.09333 260.93 6.39667 260.93 6.76334V8.02C260.93 8.38667 260.81 8.68666 260.57 8.92333C260.331 9.16 260.027 9.27666 259.661 9.27666H253.697V23.44C253.697 23.7867 253.574 24.08 253.331 24.3167C253.084 24.5533 252.791 24.67 252.441 24.67H249.914C249.568 24.67 249.271 24.5533 249.024 24.3167C248.778 24.08 248.658 23.79 248.658 23.44V9.27666H242.695C242.328 9.27666 242.025 9.16 241.785 8.92333C241.541 8.68666 241.421 8.38667 241.421 8.02Z" fill="#2B3E8A"/>
<path d="M264.754 23.3867V6.73666C264.754 6.39 264.88 6.09667 265.127 5.85333C265.377 5.61333 265.674 5.49334 266.024 5.49334H281.443C281.79 5.49334 282.086 5.62 282.333 5.86667C282.58 6.11667 282.7 6.41667 282.7 6.76334V8.02C282.7 8.36667 282.576 8.66334 282.333 8.91C282.086 9.15667 281.793 9.27666 281.443 9.27666H269.797V13.1667H279.826C280.173 13.1667 280.47 13.29 280.716 13.5333C280.96 13.78 281.083 14.0733 281.083 14.4233V15.68C281.083 16.0267 280.96 16.3233 280.716 16.57C280.47 16.8167 280.176 16.9367 279.826 16.9367H269.797V20.88H281.416C281.756 20.88 282.043 21 282.286 21.24C282.526 21.48 282.646 21.7733 282.646 22.1233V23.4067C282.646 23.7533 282.52 24.05 282.273 24.2967C282.023 24.5433 281.723 24.6633 281.376 24.6633H266.024C265.677 24.6633 265.377 24.54 265.127 24.2967C264.88 24.0567 264.754 23.7533 264.754 23.3867Z" fill="#2B3E8A"/>
<path d="M306.715 24.0933C306.715 24.4767 306.488 24.67 306.035 24.67H302.825C302.485 24.67 302.115 24.5467 301.709 24.3033C301.302 24.0567 300.992 23.7633 300.779 23.4133L298.505 19.8567C297.569 18.3933 296.436 17.6633 295.109 17.6633H291.846V23.4133C291.846 23.76 291.722 24.0567 291.479 24.3033C291.232 24.55 290.939 24.67 290.589 24.67H288.076C287.729 24.67 287.429 24.5467 287.179 24.3033C286.929 24.0567 286.806 23.7633 286.806 23.4133V6.76334C286.806 6.41667 286.926 6.11667 287.166 5.86667C287.406 5.61667 287.699 5.49334 288.049 5.49334H299.082C301.122 5.49334 302.795 6.04 304.102 7.13667C305.409 8.23333 306.062 9.71334 306.062 11.5767C306.062 14.17 304.382 15.7967 301.022 16.4567C301.559 16.6533 302.052 16.99 302.505 17.4667C302.959 17.9433 303.482 18.6367 304.069 19.5467L306.502 23.41C306.645 23.6633 306.715 23.89 306.715 24.0933ZM291.846 13.8767H297.542C298.462 13.8767 299.269 13.6933 299.969 13.33C300.669 12.9633 301.019 12.38 301.019 11.5767C301.019 10.7733 300.669 10.19 299.969 9.82333C299.269 9.45667 298.459 9.27666 297.542 9.27666H291.846V13.8767Z" fill="#2B3E8A"/>
<path d="M119.38 57.44V40.79C119.38 40.4233 119.503 40.1167 119.753 39.8667C120.003 39.6167 120.3 39.4933 120.65 39.4933H123.163C123.51 39.4933 123.806 39.62 124.053 39.8667C124.3 40.1167 124.42 40.4233 124.42 40.79V54.8867H136.066C136.413 54.8867 136.709 55.0133 136.956 55.26C137.203 55.51 137.323 55.81 137.323 56.1567V57.4133C137.323 57.76 137.199 58.0567 136.956 58.3033C136.709 58.55 136.416 58.67 136.066 58.67H120.647C120.3 58.67 120 58.5533 119.75 58.3167C119.503 58.08 119.38 57.7867 119.38 57.44Z" fill="#2B3E8A"/>
<path d="M157.075 56.6833C155.252 58.2833 152.579 59.0833 149.052 59.0833C145.526 59.0833 142.849 58.2833 141.022 56.6833C139.196 55.0833 138.282 52.55 138.282 49.08C138.282 45.6133 139.196 43.08 141.022 41.4833C142.849 39.8867 145.526 39.09 149.052 39.09C152.579 39.09 155.252 39.8867 157.075 41.4833C158.898 43.08 159.808 45.61 159.808 49.08C159.812 52.55 158.898 55.0833 157.075 56.6833ZM153.418 44.3067C152.519 43.2367 151.062 42.7033 149.052 42.7033C147.042 42.7033 145.586 43.24 144.679 44.3067C143.772 45.3767 143.322 46.97 143.322 49.0867C143.322 51.2033 143.776 52.7967 144.679 53.86C145.582 54.9267 147.042 55.4567 149.052 55.4567C151.062 55.4567 152.519 54.9233 153.418 53.86C154.318 52.7933 154.768 51.2033 154.768 49.0867C154.768 46.97 154.318 45.3767 153.418 44.3067Z" fill="#2B3E8A"/>
<path d="M162.825 57.44V40.79C162.825 40.4233 162.948 40.1167 163.198 39.8667C163.448 39.6167 163.745 39.4933 164.095 39.4933H171.571C175.441 39.4933 178.254 40.2667 180.014 41.8133C181.774 43.36 182.654 45.7867 182.654 49.0867C182.654 52.3867 181.774 54.8133 180.014 56.3533C178.254 57.8933 175.438 58.6667 171.571 58.6667H164.095C163.748 58.6667 163.448 58.55 163.198 58.3133C162.951 58.08 162.825 57.7867 162.825 57.44ZM167.868 54.8867H171.424C173.821 54.8867 175.454 54.45 176.317 53.5767C177.181 52.7033 177.614 51.2067 177.614 49.09C177.614 46.9733 177.181 45.4733 176.317 44.5967C175.454 43.72 173.821 43.28 171.424 43.28H167.868V54.8867Z" fill="#2B3E8A"/>
<path d="M186.95 56.3833C185.367 54.7867 184.577 52.3467 184.577 49.0633C184.577 45.78 185.404 43.3433 187.057 41.76C188.71 40.1767 191.19 39.3867 194.5 39.3867H197.483C199.453 39.3867 201.23 39.8567 202.813 40.7967C204.396 41.7367 205.186 42.9133 205.186 44.32C205.186 44.8467 205.03 45.2233 204.72 45.45C204.406 45.6767 204.103 45.79 203.81 45.79H202.22C201.453 45.79 200.843 45.3533 200.386 44.48C199.933 43.6067 198.81 43.17 197.017 43.17H194.637C192.683 43.17 191.36 43.59 190.664 44.4267C189.967 45.2633 189.62 46.8067 189.62 49.0533C189.62 51.3 189.934 52.8533 190.557 53.7133C191.18 54.5733 192.297 55.0033 193.9 55.0033H196.64C198.077 55.0033 199.1 54.73 199.716 54.18C200.333 53.6333 200.646 52.8467 200.666 51.82H197.643C197.297 51.82 197 51.6967 196.753 51.4533C196.507 51.2067 196.387 50.9133 196.387 50.5633V49.52C196.387 49.1733 196.51 48.8767 196.753 48.63C197 48.3833 197.293 48.2633 197.643 48.2633H204.356C204.703 48.2633 205 48.3867 205.246 48.63C205.493 48.8767 205.613 49.17 205.613 49.52V51.0033C205.613 53.5 204.863 55.42 203.366 56.76C201.87 58.1033 199.67 58.7733 196.773 58.7733H193.763C190.804 58.7767 188.53 57.98 186.95 56.3833Z" fill="#2B3E8A"/>
<path d="M208.626 57.3867V40.7367C208.626 40.39 208.749 40.0967 208.999 39.8533C209.249 39.6133 209.546 39.4933 209.896 39.4933H225.315C225.662 39.4933 225.959 39.62 226.205 39.8667C226.449 40.1167 226.572 40.4167 226.572 40.7633V42.02C226.572 42.3667 226.449 42.6633 226.205 42.91C225.959 43.1567 225.665 43.2767 225.315 43.2767H213.666V47.1667H223.695C224.042 47.1667 224.339 47.29 224.585 47.5333C224.832 47.78 224.952 48.0733 224.952 48.4233V49.68C224.952 50.0267 224.829 50.3233 224.585 50.57C224.339 50.8167 224.045 50.9367 223.695 50.9367H213.666V54.88H225.285C225.625 54.88 225.915 55 226.155 55.24C226.395 55.48 226.515 55.7733 226.515 56.1233V57.4067C226.515 57.7533 226.389 58.05 226.142 58.2967C225.892 58.5433 225.595 58.6633 225.245 58.6633H209.893C209.546 58.6633 209.246 58.54 208.996 58.2967C208.749 58.0567 208.626 57.7533 208.626 57.3867Z" fill="#2B3E8A"/>
<path d="M41.8933 5.38334C38.2702 -0.673331 29.4939 -0.673331 25.874 5.38334L2.16507 45.0333C-1.55477 51.2533 2.92837 59.1567 10.1747 59.1567H25.1907L49.6197 18.3033L41.8933 5.38334Z" fill="#1438C9"/>
<path d="M97.0709 45.0367L73.362 5.38667C69.7388 -0.669999 60.9625 -0.669999 57.3427 5.38667L49.6163 18.3067L74.0453 59.16H89.0613C96.3076 59.16 100.791 51.2567 97.0709 45.0367Z" fill="#74C6F7"/>
<path d="M25.1907 59.16H74.0453L49.6197 18.3033L25.1907 59.16Z" fill="#8361FF"/>
</svg>
