<svg width="582" height="106" viewBox="0 0 582 106" fill="none" xmlns="http://www.w3.org/2000/svg">
<path d="M134.421 83.1121C134.409 56.2075 124.743 29.2216 105.161 7.80123C96.8348 -1.31013 82.701 -1.9427 73.5917 6.38519C65.0337 14.2082 63.9545 27.1672 70.7661 36.2611L70.5689 36.2669C83.8498 49.8179 90.2147 67.5763 89.7041 85.1549L89.8201 85.1433C90.8007 96.576 100.391 105.554 112.077 105.554C124.36 105.554 134.322 95.6416 134.421 83.3848C134.421 83.3268 134.426 83.263 134.426 83.2049C134.421 83.1701 134.421 83.1411 134.421 83.1121Z" fill="url(#paint0_linear_24_23)"/>
<path d="M22.6959 105.548C35.0361 105.548 45.0397 95.5421 45.0397 83.1991C45.0397 70.8561 35.0361 60.8502 22.6959 60.8502C10.3558 60.8502 0.352173 70.8561 0.352173 83.1991C0.352173 95.5421 10.3558 105.548 22.6959 105.548Z" fill="#433CD8"/>
<path d="M89.7273 82.996C89.6809 66.1255 83.3102 49.2608 70.5689 36.2553C61.9296 27.4399 47.7841 27.3006 38.9708 35.9419C30.2793 44.4671 30.0298 58.3431 38.3093 67.1817L38.2977 67.1933C42.4578 71.2499 45.0397 76.9198 45.0397 83.1933C45.0397 95.5371 55.0425 105.542 67.3835 105.542C79.6665 105.542 89.6344 95.63 89.7273 83.3616C89.7273 83.3035 89.7331 83.2455 89.7331 83.1933C89.7331 83.1295 89.7273 83.0656 89.7273 82.996Z" fill="url(#paint1_linear_24_23)"/>
<path d="M229.406 80.8255C229.406 82.8509 228.907 85.0388 227.909 87.395C226.911 89.7512 225.345 92.0667 223.204 94.3358C221.063 96.605 218.33 98.4505 215.011 99.8665C211.687 101.283 207.811 101.991 203.39 101.991C200.036 101.991 196.984 101.671 194.24 101.039C191.496 100.4 189.001 99.4138 186.761 98.0674C184.522 96.721 182.462 94.951 180.582 92.7573C178.905 90.7609 177.472 88.5266 176.288 86.0544C175.105 83.5821 174.211 80.9416 173.619 78.1385C173.028 75.3355 172.732 72.3583 172.732 69.2071C172.732 64.0885 173.474 59.5096 174.966 55.4588C176.457 51.4138 178.586 47.9492 181.359 45.0707C184.133 42.1922 187.388 40.0043 191.113 38.5012C194.843 36.9982 198.818 36.2437 203.036 36.2437C208.182 36.2437 212.76 37.2709 216.781 39.3253C220.796 41.3797 223.877 43.9158 226.018 46.9336C228.159 49.9572 229.226 52.8125 229.226 55.4994C229.226 56.9735 228.704 58.2735 227.666 59.4051C226.627 60.531 225.368 61.0939 223.894 61.0939C222.247 61.0939 221.011 60.7051 220.187 59.9216C219.363 59.1382 218.446 57.7976 217.431 55.8883C215.754 52.737 213.781 50.3808 211.513 48.8197C209.244 47.2586 206.448 46.4751 203.123 46.4751C197.831 46.4751 193.619 48.4831 190.486 52.5049C187.347 56.5208 185.781 62.2314 185.781 69.6365C185.781 74.581 186.477 78.6957 187.864 81.9746C189.25 85.2535 191.217 87.7084 193.758 89.3275C196.3 90.9467 199.282 91.7591 202.688 91.7591C206.39 91.7591 209.517 90.8422 212.076 89.0025C214.634 87.1686 216.561 84.47 217.866 80.9126C218.417 79.2354 219.096 77.8716 219.903 76.8154C220.709 75.7591 222.015 75.231 223.807 75.231C225.339 75.231 226.656 75.7649 227.753 76.8328C228.855 77.9064 229.406 79.2354 229.406 80.8255Z" fill="#2F2E4A"/>
<path d="M270.073 95.3108C267.213 97.5393 264.445 99.2049 261.77 100.319C259.096 101.433 256.096 101.991 252.771 101.991C249.737 101.991 247.068 101.393 244.77 100.191C242.473 98.9902 240.703 97.3652 239.461 95.3108C238.22 93.2564 237.599 91.0337 237.599 88.6311C237.599 85.3928 238.626 82.6304 240.68 80.3496C242.734 78.0689 245.548 76.531 249.133 75.7533C249.882 75.5792 251.75 75.1904 254.727 74.5811C257.703 73.9717 260.256 73.4204 262.38 72.9097C264.503 72.4048 266.807 71.7896 269.296 71.0642C269.151 67.9419 268.524 65.6496 267.41 64.1929C266.296 62.7363 263.993 62.0051 260.494 62.0051C257.488 62.0051 255.226 62.4229 253.705 63.2644C252.185 64.1059 250.886 65.3594 249.801 67.0366C248.716 68.7138 247.95 69.8164 247.503 70.3562C247.056 70.8901 246.093 71.157 244.619 71.157C243.291 71.157 242.142 70.7334 241.173 69.8803C240.204 69.0272 239.722 67.9361 239.722 66.6072C239.722 64.5237 240.459 62.5042 241.933 60.5368C243.407 58.5694 245.704 56.9503 248.826 55.6793C251.947 54.4084 255.835 53.77 260.488 53.77C265.693 53.77 269.783 54.3852 272.759 55.6155C275.736 56.8458 277.836 58.79 279.066 61.4479C280.296 64.1059 280.911 67.6344 280.911 72.0275C280.911 74.8016 280.906 77.1578 280.888 79.0961C280.871 81.0344 280.853 83.1875 280.824 85.5553C280.824 87.7838 281.196 90.0994 281.933 92.5136C282.669 94.9278 283.041 96.4831 283.041 97.1737C283.041 98.3866 282.472 99.4951 281.329 100.493C280.186 101.491 278.892 101.991 277.448 101.991C276.235 101.991 275.034 101.422 273.85 100.279C272.661 99.1353 271.402 97.4813 270.073 95.3108ZM269.296 78.1792C267.561 78.8175 265.037 79.4849 261.73 80.1929C258.417 80.901 256.131 81.4233 254.86 81.7541C253.589 82.0849 252.371 82.7348 251.216 83.704C250.062 84.6732 249.482 86.0254 249.482 87.7606C249.482 89.5538 250.16 91.0801 251.518 92.3337C252.876 93.593 254.657 94.2198 256.85 94.2198C259.194 94.2198 261.353 93.7091 263.331 92.6819C265.31 91.6547 266.76 90.3315 267.688 88.7123C268.756 86.9191 269.296 83.971 269.296 79.8621V78.1792Z" fill="#2F2E4A"/>
<path d="M292.927 94.7885V43.4399C292.927 41.0722 293.455 39.2789 294.511 38.0602C295.567 36.8473 296.989 36.2379 298.782 36.2379C300.575 36.2379 302.019 36.8357 303.116 38.037C304.213 39.2383 304.764 41.0373 304.764 43.4341V94.7827C304.764 97.1853 304.207 98.9844 303.093 100.18C301.979 101.381 300.54 101.979 298.776 101.979C297.041 101.979 295.631 101.358 294.546 100.116C293.467 98.8799 292.927 97.1041 292.927 94.7885Z" fill="#2F2E4A"/>
<path d="M316.989 94.7885V43.4399C316.989 41.0722 317.517 39.2789 318.573 38.0602C319.629 36.8473 321.05 36.2379 322.843 36.2379C324.636 36.2379 326.08 36.8357 327.177 38.037C328.274 39.2383 328.825 41.0373 328.825 43.4341V94.7827C328.825 97.1853 328.268 98.9844 327.154 100.18C326.04 101.381 324.601 101.979 322.837 101.979C321.102 101.979 319.692 101.358 318.607 100.116C317.528 98.8799 316.989 97.1041 316.989 94.7885Z" fill="#2F2E4A"/>
<path d="M396.03 80.8255C396.03 82.8509 395.531 85.0388 394.533 87.395C393.535 89.7512 391.969 92.0667 389.828 94.3358C387.687 96.605 384.954 98.4505 381.635 99.8665C378.311 101.283 374.435 101.991 370.014 101.991C366.66 101.991 363.608 101.671 360.864 101.039C358.12 100.4 355.625 99.4138 353.385 98.0674C351.145 96.721 349.086 94.951 347.206 92.7573C345.529 90.7609 344.096 88.5266 342.912 86.0544C341.729 83.5821 340.835 80.9416 340.243 78.1385C339.652 75.3355 339.356 72.3583 339.356 69.2071C339.356 64.0885 340.098 59.5096 341.589 55.4588C343.081 51.4138 345.21 47.9492 347.983 45.0707C350.757 42.1922 354.012 40.0043 357.737 38.5012C361.467 36.9982 365.442 36.2437 369.66 36.2437C374.806 36.2437 379.384 37.2709 383.405 39.3253C387.42 41.3797 390.501 43.9158 392.642 46.9336C394.783 49.9572 395.85 52.8125 395.85 55.4994C395.85 56.9735 395.328 58.2735 394.29 59.4051C393.251 60.531 391.992 61.0939 390.518 61.0939C388.871 61.0939 387.635 60.7051 386.811 59.9216C385.987 59.144 385.07 57.7976 384.055 55.8883C382.378 52.737 380.405 50.3808 378.137 48.8197C375.868 47.2586 373.071 46.4751 369.747 46.4751C364.455 46.4751 360.243 48.4831 357.11 52.5049C353.971 56.5208 352.405 62.2314 352.405 69.6365C352.405 74.581 353.101 78.6957 354.487 81.9746C355.874 85.2535 357.841 87.7084 360.382 89.3275C362.924 90.9467 365.9 91.7591 369.312 91.7591C373.013 91.7591 376.141 90.8422 378.7 89.0025C381.258 87.1686 383.185 84.47 384.49 80.9126C385.041 79.2354 385.72 77.8716 386.527 76.8154C387.333 75.7591 388.638 75.231 390.431 75.231C391.963 75.231 393.28 75.7649 394.377 76.8328C395.485 77.9064 396.03 79.2354 396.03 80.8255Z" fill="#2F2E4A"/>
<path d="M406.787 94.7885V43.4399C406.787 41.0722 407.315 39.2789 408.371 38.0602C409.427 36.8473 410.849 36.2379 412.642 36.2379C414.434 36.2379 415.879 36.8357 416.976 38.037C418.072 39.2383 418.624 41.0373 418.624 43.4341V94.7827C418.624 97.1853 418.067 98.9844 416.953 100.18C415.839 101.381 414.4 101.979 412.636 101.979C410.901 101.979 409.491 101.358 408.406 100.116C407.327 98.8799 406.787 97.1041 406.787 94.7885Z" fill="#2F2E4A"/>
<path d="M475.159 77.918C475.159 81.4465 474.608 84.6964 473.511 87.6735C472.415 90.6507 470.825 93.21 468.742 95.3514C466.659 97.4929 464.176 99.1295 461.286 100.273C458.397 101.416 455.142 101.985 451.533 101.985C447.947 101.985 444.727 101.404 441.861 100.25C439 99.0946 436.523 97.4407 434.423 95.2818C432.328 93.1287 430.738 90.5868 429.653 87.6503C428.568 84.7138 428.029 81.4697 428.029 77.9122C428.029 74.3257 428.58 71.0468 429.677 68.0696C430.773 65.0925 432.351 62.5506 434.405 60.4381C436.459 58.3257 438.942 56.7007 441.861 55.5575C444.779 54.4142 448.005 53.8455 451.533 53.8455C455.119 53.8455 458.368 54.4258 461.286 55.5807C464.205 56.7356 466.705 58.3837 468.788 60.5252C470.871 62.6666 472.449 65.2085 473.534 68.1567C474.619 71.1106 475.159 74.3663 475.159 77.918ZM463.282 77.918C463.282 73.0896 462.22 69.3289 460.097 66.642C457.973 63.955 455.119 62.6086 451.533 62.6086C449.218 62.6086 447.181 63.2122 445.418 64.4077C443.654 65.609 442.296 67.379 441.344 69.7178C440.393 72.0624 439.911 74.79 439.911 77.9122C439.911 81.0054 440.381 83.7098 441.321 86.0196C442.261 88.3351 443.602 90.1052 445.354 91.3297C447.1 92.56 449.16 93.1752 451.533 93.1752C455.119 93.1752 457.973 91.823 460.097 89.1186C462.22 86.4258 463.282 82.6884 463.282 77.918Z" fill="#2F2E4A"/>
<path d="M515.222 95.3108V93.7903C513.807 95.5836 512.315 97.0867 510.755 98.2996C509.194 99.5125 507.488 100.418 505.637 101.01C503.786 101.602 501.674 101.898 499.307 101.898C496.447 101.898 493.882 101.306 491.614 100.122C489.345 98.938 487.587 97.3014 486.345 95.2238C484.872 92.7109 484.135 89.0954 484.135 84.383V60.9198C484.135 58.552 484.669 56.7762 485.736 55.6097C486.804 54.4374 488.219 53.8513 489.983 53.8513C491.776 53.8513 493.221 54.4432 494.317 55.6271C495.414 56.811 495.965 58.5753 495.965 60.9198V79.8738C495.965 82.6188 496.197 84.9285 496.661 86.7914C497.126 88.6543 497.955 90.1168 499.156 91.173C500.357 92.2292 501.982 92.7573 504.036 92.7573C506.032 92.7573 507.912 92.1654 509.67 90.9815C511.434 89.7976 512.722 88.2481 513.528 86.3388C514.195 84.6616 514.526 80.988 514.526 75.3239V60.9256C514.526 58.5811 515.077 56.8226 516.174 55.6329C517.27 54.449 518.704 53.8571 520.467 53.8571C522.231 53.8571 523.647 54.4432 524.714 55.6155C525.782 56.7878 526.316 58.5578 526.316 60.9256V95.2296C526.316 97.4871 525.805 99.1759 524.778 100.302C523.751 101.428 522.428 101.991 520.81 101.991C519.191 101.991 517.856 101.404 516.8 100.232C515.744 99.0598 515.222 97.4233 515.222 95.3108Z" fill="#2F2E4A"/>
<path d="M570.551 95.2238V94.0515C568.961 95.8738 567.394 97.3536 565.845 98.4969C564.296 99.6402 562.619 100.505 560.815 101.097C559.011 101.689 557.038 101.985 554.897 101.985C552.065 101.985 549.443 101.387 547.029 100.186C544.616 98.9844 542.527 97.2724 540.763 95.0439C538.999 92.8212 537.665 90.2038 536.754 87.1919C535.843 84.1857 535.39 80.93 535.39 77.4363C535.39 70.037 537.195 64.2684 540.809 60.1306C544.424 55.9985 549.176 53.9267 555.077 53.9267C558.488 53.9267 561.366 54.5129 563.704 55.6851C566.043 56.8574 568.329 58.6565 570.557 61.0823V43.6025C570.557 41.1766 571.038 39.3369 572.007 38.095C572.976 36.8531 574.357 36.2321 576.15 36.2321C577.943 36.2321 579.324 36.8009 580.293 37.9441C581.261 39.0874 581.743 40.7704 581.743 42.9989V95.2122C581.743 97.4697 581.221 99.1585 580.182 100.284C579.144 101.41 577.798 101.973 576.15 101.973C574.531 101.973 573.197 101.387 572.141 100.215C571.079 99.0598 570.551 97.3942 570.551 95.2238ZM547.267 77.831C547.267 81.0402 547.766 83.7736 548.764 86.0254C549.762 88.2771 551.125 89.9775 552.86 91.1208C554.595 92.264 556.487 92.8328 558.541 92.8328C560.623 92.8328 562.521 92.2931 564.244 91.2078C565.961 90.1226 567.337 88.4628 568.363 86.2227C569.39 83.9826 569.901 81.1853 569.901 77.831C569.901 74.6797 569.39 71.9695 568.363 69.7004C567.337 67.4313 565.95 65.696 564.203 64.4947C562.457 63.2934 560.542 62.6957 558.459 62.6957C556.289 62.6957 554.351 63.3108 552.651 64.5411C550.946 65.7715 549.623 67.5357 548.683 69.8339C547.737 72.132 547.267 74.7958 547.267 77.831Z" fill="#2F2E4A"/>
<defs>
<linearGradient id="paint0_linear_24_23" x1="100.373" y1="106.503" x2="100.373" y2="2.45112" gradientUnits="userSpaceOnUse">
<stop stop-color="#4D9FFF"/>
<stop offset="1" stop-color="#51D8D6"/>
</linearGradient>
<linearGradient id="paint1_linear_24_23" x1="60.9998" y1="107.098" x2="60.9998" y2="33.9375" gradientUnits="userSpaceOnUse">
<stop stop-color="#433CD8"/>
<stop offset="1" stop-color="#4D9FFF"/>
</linearGradient>
</defs>
</svg>
