<svg width="135" height="106" viewBox="0 0 135 106" fill="none" xmlns="http://www.w3.org/2000/svg">
<path d="M134.421 83.1121C134.409 56.2075 124.743 29.2216 105.161 7.80123C96.8348 -1.31013 82.701 -1.9427 73.5917 6.38519C65.0337 14.2082 63.9545 27.1672 70.7661 36.2611L70.5689 36.2669C83.8498 49.8179 90.2147 67.5763 89.7041 85.1549L89.8201 85.1433C90.8007 96.576 100.391 105.554 112.077 105.554C124.36 105.554 134.322 95.6416 134.421 83.3848C134.421 83.3268 134.426 83.263 134.426 83.2049C134.421 83.1701 134.421 83.1411 134.421 83.1121Z" fill="url(#paint0_linear_24_22)"/>
<path d="M22.6959 105.548C35.0361 105.548 45.0397 95.5421 45.0397 83.1991C45.0397 70.8561 35.0361 60.8502 22.6959 60.8502C10.3558 60.8502 0.352173 70.8561 0.352173 83.1991C0.352173 95.5421 10.3558 105.548 22.6959 105.548Z" fill="#433CD8"/>
<path d="M89.7273 82.996C89.6809 66.1255 83.3102 49.2608 70.5689 36.2553C61.9296 27.4399 47.7841 27.3006 38.9708 35.9419C30.2793 44.4671 30.0298 58.3431 38.3093 67.1817L38.2977 67.1933C42.4578 71.2499 45.0397 76.9198 45.0397 83.1933C45.0397 95.5371 55.0425 105.542 67.3835 105.542C79.6665 105.542 89.6344 95.63 89.7273 83.3616C89.7273 83.3035 89.7331 83.2455 89.7331 83.1933C89.7331 83.1295 89.7273 83.0656 89.7273 82.996Z" fill="url(#paint1_linear_24_22)"/>
<defs>
<linearGradient id="paint0_linear_24_22" x1="100.373" y1="106.503" x2="100.373" y2="2.45112" gradientUnits="userSpaceOnUse">
<stop stop-color="#4D9FFF"/>
<stop offset="1" stop-color="#51D8D6"/>
</linearGradient>
<linearGradient id="paint1_linear_24_22" x1="60.9998" y1="107.098" x2="60.9998" y2="33.9375" gradientUnits="userSpaceOnUse">
<stop stop-color="#433CD8"/>
<stop offset="1" stop-color="#4D9FFF"/>
</linearGradient>
</defs>
</svg>
